# Blender 3.3.0
# www.blender.org
o Bazooka_Barrel
v 0.095671 0.230970 -0.750000
v 0.095671 0.230970 0.750000
v 0.230970 0.095671 -0.750000
v 0.230970 0.095671 0.750000
v 0.230970 -0.095671 -0.750000
v 0.230970 -0.095671 0.750000
v 0.095671 -0.230970 -0.750000
v 0.095671 -0.230970 0.750000
v -0.095671 -0.230970 -0.750000
v -0.230970 -0.095671 -0.750000
v -0.230970 0.095671 -0.750000
v -0.230970 0.095671 0.750000
v -0.095671 0.230970 -0.750000
v -0.095671 -0.230970 0.750000
v -0.230970 -0.095671 0.750000
v -0.095671 0.230970 0.750000
v 0.184776 0.076537 0.750000
v 0.076537 0.184776 0.750000
v 0.184776 -0.076537 0.750000
v 0.076537 -0.184776 0.750000
v -0.076537 -0.184776 0.750000
v -0.184776 -0.076537 0.750000
v -0.184776 0.076537 0.750000
v -0.076537 0.184776 0.750000
v 0.184776 0.076537 -0.601149
v 0.076537 0.184776 -0.601149
v 0.184776 -0.076537 -0.601149
v 0.076537 -0.184776 -0.601149
v -0.076537 -0.184776 -0.601149
v -0.184776 -0.076537 -0.601149
v -0.184776 0.076537 -0.601149
v -0.076537 0.184776 -0.601149
vn 0.2971 0.7173 -0.6303
vn 0.2971 0.7173 0.6303
vn 0.7173 0.2971 0.6303
vn 0.7173 0.2971 -0.6303
vn 0.7173 -0.2971 0.6303
vn 0.7173 -0.2971 -0.6303
vn 0.2971 -0.7173 0.6303
vn 0.2971 -0.7173 -0.6303
vn -0.2971 -0.7173 0.6303
vn -0.2971 -0.7173 -0.6303
vn -0.7173 -0.2971 0.6303
vn -0.7173 -0.2971 -0.6303
vn -0.7173 0.2971 0.6303
vn -0.7173 0.2971 -0.6303
vn -0.2971 0.7173 0.6303
vn -0.2971 0.7173 -0.6303
vn -0.0000 -0.0000 1.0000
vn 0.2275 0.5491 0.8042
vn -0.2275 0.5491 0.8042
vn -0.5491 0.2275 0.8042
vn -0.5491 -0.2275 0.8042
vn 0.2275 -0.5491 0.8042
vn 0.5491 -0.2275 0.8042
vn 0.5491 0.2275 0.8042
vn -0.2275 -0.5491 0.8042
vt 1.000000 0.500000
vt 0.000000 0.500000
vt 0.750000 0.490000
vt 1.000000 1.000000
vt 0.000000 1.000000
vt 0.875000 0.500000
vt 0.919706 0.419706
vt 0.875000 1.000000
vt 0.750000 0.500000
vt 0.990000 0.250000
vt 0.750000 1.000000
vt 0.625000 0.500000
vt 0.919706 0.080294
vt 0.625000 1.000000
vt 0.500000 0.500000
vt 0.750000 0.010000
vt 0.375000 0.500000
vt 0.580294 0.080294
vt 0.250000 0.500000
vt 0.510000 0.250000
vt 0.250000 1.000000
vt 0.125000 0.500000
vt 0.580294 0.419706
vt 0.500000 1.000000
vt 0.375000 1.000000
vt 0.125000 1.000000
vt 0.875000 1.000000
vt 1.000000 1.000000
vt 0.000000 1.000000
vt 0.750000 1.000000
vt 0.625000 1.000000
vt 0.500000 1.000000
vt 0.375000 1.000000
vt 0.250000 1.000000
vt 0.125000 1.000000
vt 0.419706 0.419706
vt 0.875000 1.000000
vt 0.250000 0.490000
vt 1.000000 1.000000
vt 0.000000 1.000000
vt 0.490000 0.250000
vt 0.750000 1.000000
vt 0.419706 0.080294
vt 0.625000 1.000000
vt 0.250000 0.010000
vt 0.500000 1.000000
vt 0.080294 0.080294
vt 0.375000 1.000000
vt 0.010000 0.250000
vt 0.250000 1.000000
vt 0.080294 0.419706
vt 0.125000 1.000000
s 1
f 1/1/1 2/4/2 4/8/3 3/6/4
f 3/6/4 4/8/3 6/11/5 5/9/6
f 5/9/6 6/11/5 8/14/7 7/12/8
f 7/12/8 8/14/7 14/24/9 9/15/10
f 9/15/10 14/24/9 15/25/11 10/17/12
f 10/17/12 15/25/11 12/21/13 11/19/14
f 11/19/14 12/21/13 16/26/15 13/22/16
f 13/22/16 16/26/15 2/5/2 1/2/1
f 1/3/1 3/7/4 5/10/6 7/13/8 9/16/10 10/18/12 11/20/14 13/23/16
s 0
f 6/11/17 4/8/17 17/27/17 19/30/17
s 1
f 21/32/18 20/31/19 28/44/15 29/46/2
s 0
f 16/26/17 12/21/17 23/34/17 24/35/17
f 15/25/17 14/24/17 21/32/17 22/33/17
f 8/14/17 6/11/17 19/30/17 20/31/17
f 4/8/17 2/4/17 18/28/17 17/27/17
f 2/5/17 16/26/17 24/35/17 18/29/17
f 12/21/17 15/25/17 22/33/17 23/34/17
f 14/24/17 8/14/17 20/31/17 21/32/17
s 1
f 25/36/11 26/38/9 32/51/7 31/49/5 30/47/3 29/45/2 28/43/15 27/41/13
f 19/30/20 17/27/21 25/37/11 27/42/13
f 24/35/22 23/34/23 31/50/5 32/52/7
f 22/33/24 21/32/18 29/46/2 30/48/3
f 20/31/19 19/30/20 27/42/13 28/44/15
f 17/27/21 18/28/25 26/39/9 25/37/11
f 18/29/25 24/35/22 32/52/7 26/40/9
f 23/34/23 22/33/24 30/48/3 31/50/5
o Bazooka_GripFront
v -0.000000 -0.355025 0.469714
v -0.000000 -0.205025 0.469714
v 0.025981 -0.355025 0.484714
v 0.025981 -0.205025 0.484714
v 0.025981 -0.355025 0.514714
v 0.025981 -0.205025 0.514714
v -0.000000 -0.355025 0.529714
v -0.000000 -0.205025 0.529714
v -0.025981 -0.355025 0.514714
v -0.025981 -0.205025 0.514714
v -0.025981 -0.355025 0.484714
v -0.025981 -0.205025 0.484714
vn -0.0000 -0.6100 -0.7924
vn -0.0000 0.6100 -0.7924
vn 0.6862 0.6100 -0.3962
vn 0.6862 -0.6100 -0.3962
vn 0.6862 0.6100 0.3962
vn 0.6862 -0.6100 0.3962
vn -0.0000 0.6100 0.7924
vn -0.0000 -0.6100 0.7924
vn -0.6862 0.6100 0.3962
vn -0.6862 -0.6100 0.3962
vn -0.6862 0.6100 -0.3962
vn -0.6862 -0.6100 -0.3962
vn -0.0000 -1.0000 -0.0000
vt 1.000000 0.500000
vt -0.000000 0.500000
vt 0.750000 0.490000
vt 1.000000 1.000000
vt 0.250000 0.490000
vt -0.000000 1.000000
vt 0.833333 0.500000
vt 0.957846 0.370000
vt 0.833333 1.000000
vt 0.457846 0.370000
vt 0.666667 0.500000
vt 0.957846 0.130000
vt 0.666667 1.000000
vt 0.457846 0.130000
vt 0.500000 0.500000
vt 0.750000 0.010000
vt 0.500000 1.000000
vt 0.250000 0.010000
vt 0.333333 0.500000
vt 0.542154 0.130000
vt 0.042154 0.130000
vt 0.333333 1.000000
vt 0.166667 0.500000
vt 0.542154 0.370000
vt 0.042154 0.370000
vt 0.166667 1.000000
s 1
f 33/53/26 34/56/27 36/61/28 35/59/29
f 35/59/29 36/61/28 38/65/30 37/63/31
f 37/63/31 38/65/30 40/69/32 39/67/33
f 39/67/33 40/69/32 42/74/34 41/71/35
f 36/62/28 34/57/27 44/77/36 42/73/34 40/70/32 38/66/30
f 41/71/35 42/74/34 44/78/36 43/75/37
f 43/75/37 44/78/36 34/58/27 33/54/26
s 0
f 33/55/38 35/60/38 37/64/38 39/68/38 41/72/38 43/76/38
o Bazooka_GripBack
v -0.000000 -0.355025 -0.497682
v -0.000000 -0.205025 -0.497682
v 0.025981 -0.355025 -0.482681
v 0.025981 -0.205025 -0.482681
v 0.025981 -0.355025 -0.452681
v 0.025981 -0.205025 -0.452681
v -0.000000 -0.355025 -0.437681
v -0.000000 -0.205025 -0.437681
v -0.025981 -0.355025 -0.452681
v -0.025981 -0.205025 -0.452681
v -0.025981 -0.355025 -0.482681
v -0.025981 -0.205025 -0.482681
vn -0.0000 -0.6100 -0.7924
vn -0.0000 0.6100 -0.7924
vn 0.6862 0.6100 -0.3962
vn 0.6862 -0.6100 -0.3962
vn 0.6862 0.6100 0.3962
vn 0.6862 -0.6100 0.3962
vn -0.0000 0.6100 0.7924
vn -0.0000 -0.6100 0.7924
vn -0.6862 0.6100 0.3962
vn -0.6862 -0.6100 0.3962
vn -0.6862 0.6100 -0.3962
vn -0.6862 -0.6100 -0.3962
vn -0.0000 -1.0000 -0.0000
vt 1.000000 0.500000
vt -0.000000 0.500000
vt 0.750000 0.490000
vt 1.000000 1.000000
vt 0.250000 0.490000
vt -0.000000 1.000000
vt 0.833333 0.500000
vt 0.957846 0.370000
vt 0.833333 1.000000
vt 0.457846 0.370000
vt 0.666667 0.500000
vt 0.957846 0.130000
vt 0.666667 1.000000
vt 0.457846 0.130000
vt 0.500000 0.500000
vt 0.750000 0.010000
vt 0.500000 1.000000
vt 0.250000 0.010000
vt 0.333333 0.500000
vt 0.542154 0.130000
vt 0.042154 0.130000
vt 0.333333 1.000000
vt 0.166667 0.500000
vt 0.542154 0.370000
vt 0.042154 0.370000
vt 0.166667 1.000000
s 1
f 45/79/39 46/82/40 48/87/41 47/85/42
f 47/85/42 48/87/41 50/91/43 49/89/44
f 49/89/44 50/91/43 52/95/45 51/93/46
f 51/93/46 52/95/45 54/100/47 53/97/48
f 48/88/41 46/83/40 56/103/49 54/99/47 52/96/45 50/92/43
f 53/97/48 54/100/47 56/104/49 55/101/50
f 55/101/50 56/104/49 46/84/40 45/80/39
s 0
f 45/81/51 47/86/51 49/90/51 51/94/51 53/98/51 55/102/51
o Bazooka_Sight
v 0.017080 0.220682 0.739584
v -0.025612 0.220668 0.739584
v -0.004970 0.254827 0.739584
v 0.017080 0.220682 0.701399
v -0.025612 0.220668 0.701399
v -0.004970 0.254827 0.701399
vn -0.0000 -0.0000 1.0000
vn -0.7164 0.4329 0.5472
vn -0.0124 0.8303 0.5572
vn -0.0124 0.8303 -0.5572
vn -0.7164 0.4329 -0.5472
vn 0.7091 0.4579 -0.5362
vn 0.7091 0.4579 0.5362
vt 0.625000 0.000000
vt 0.875000 0.750000
vt 0.375000 0.250000
vt 0.625000 0.250000
vt 0.875000 0.500000
vt 0.375000 0.750000
vt 0.625000 0.750000
vt 0.375000 0.500000
vt 0.625000 0.500000
s 0
f 57/105/52 59/108/52 58/107/52
s 1
f 58/107/53 59/108/54 62/113/55 61/112/56
f 61/112/56 62/113/55 60/110/57
f 62/113/55 59/109/54 57/106/58 60/111/57
