# Blender 3.3.0
# www.blender.org
mtllib TurretV1_Base.mtl
o TurretBase
v -1.250000 -1.500000 1.250000
v -1.250000 -0.500000 1.250000
v -1.250000 -1.500000 -1.250000
v -1.250000 -0.500000 -1.250000
v 1.250000 -1.500000 1.250000
v 1.250000 -0.500000 1.250000
v 0.625000 -0.707107 -0.625000
v 1.250000 -1.500000 -1.250000
v 0.338248 -0.923880 -0.338248
v 1.250000 -0.500000 -1.250000
v 0.883883 -0.707107 0.000000
v 0.478354 -0.923880 0.000000
v 0.625000 -0.707107 0.625000
v 0.338248 -0.923880 0.338248
v -0.000000 -0.707107 0.883883
v -0.000000 -0.923880 0.478354
v -0.625000 -0.707107 0.625000
v -0.338248 -0.923880 0.338248
v -0.883883 -0.707107 0.000000
v -0.478354 -0.923880 0.000000
v -0.625000 -0.707107 -0.625000
v -0.338248 -0.923880 -0.338248
v -0.000000 -1.000000 0.000000
v -0.000000 -0.707107 -0.883883
v -0.000000 -0.923880 -0.478354
v -1.056864 -0.500000 0.000000
v -0.747316 -0.500000 0.747316
v 0.747316 -0.500000 -0.747316
v -0.000000 -0.500000 -1.056864
v -0.747316 -0.500000 -0.747316
v -0.000000 -0.500000 1.056864
v 1.056864 -0.500000 0.000000
v 0.747316 -0.500000 0.747316
v 1.250000 -1.000000 0.000000
vn -1.0000 -0.0000 -0.0000
vn -0.0000 -0.0000 -1.0000
vn 1.0000 -0.0000 -0.0000
vn -0.0000 -0.0000 1.0000
vn -0.0000 1.0000 -0.0000
vn 0.3296 0.9441 -0.0000
vn -0.3296 0.9441 -0.0000
vn -0.2509 0.9349 0.2509
vn -0.0000 0.9349 0.3548
vn -0.0000 0.7532 0.6578
vn -0.2331 0.9441 0.2331
vn -0.0000 0.9441 0.3296
vn -0.6578 0.7532 -0.0000
vn -0.4652 0.7532 0.4652
vn -0.3548 0.9349 -0.0000
vn -0.2509 0.9349 -0.2509
vn -0.2331 0.9441 -0.2331
vn -0.0000 0.9349 -0.3548
vn -0.0000 0.7532 -0.6578
vn -0.4652 0.7532 -0.4652
vn 0.2509 0.9349 -0.2509
vn 0.2331 0.9441 -0.2331
vn -0.0000 0.9441 -0.3296
vn 0.6578 0.7532 -0.0000
vn 0.4652 0.7532 -0.4652
vn 0.3548 0.9349 -0.0000
vn 0.2509 0.9349 0.2509
vn 0.2331 0.9441 0.2331
vn 0.4652 0.7532 0.4652
vt 0.999855 0.535225
vt 0.422932 0.765994
vt 0.999855 0.765994
vt 0.422932 0.996764
vt 0.413702 0.997780
vt 0.999855 0.073687
vt 0.422932 0.535225
vt 0.422932 0.765994
vt 0.999855 0.304456
vt 0.413702 0.586242
vt 0.999855 0.765994
vt 0.422932 0.304456
vt 0.422932 0.535225
vt 0.999855 0.996764
vt 0.002163 0.997780
vt 0.341983 0.205266
vt 0.055445 0.062840
vt 0.292133 0.579647
vt 0.999855 0.304456
vt 0.422932 0.073687
vt 0.256559 0.493763
vt 0.422932 0.304456
vt 0.999855 0.535225
vt 0.002163 0.586242
vt 0.198714 0.205266
vt 0.401787 0.469993
vt 0.315903 0.434419
vt 0.341983 0.157791
vt 0.055445 0.205266
vt 0.401787 0.314920
vt 0.315903 0.350494
vt 0.292133 0.205266
vt 0.198714 0.157791
vt 0.256559 0.291150
vt 0.341983 0.110316
vt 0.137060 0.205266
vt 0.055445 0.157791
vt 0.172634 0.291150
vt 0.198714 0.110316
vt 0.027406 0.314920
vt 0.113290 0.350494
vt 0.341983 0.062840
vt 0.055445 0.110316
vt 0.027406 0.469993
vt 0.113290 0.434419
vt 0.214597 0.392457
vt 0.198714 0.062840
vt 0.137060 0.579647
vt 0.172634 0.493763
vt 0.381909 0.792011
vt 0.198714 0.062840
vt 0.330952 0.915031
vt 0.027406 0.110316
vt 0.370022 0.062840
vt 0.084913 0.668991
vt 0.027406 0.015365
vt 0.370022 0.157791
vt 0.207933 0.618035
vt 0.198714 0.015365
vt 0.330952 0.668991
vt 0.027406 0.062840
vt 0.370022 0.015365
vt 0.207933 0.965987
vt 0.198714 0.110316
vt 0.033957 0.792011
vt 0.198714 0.157791
vt 0.084913 0.915031
vt 0.027406 0.157791
vt 0.370022 0.110316
vt 0.711393 0.419841
s 1
usemtl TurretBase
f 2/3/1 3/7/1 1/1/1
f 4/9/2 8/20/2 3/6/2
f 10/23/3 34/70/3 5/12/3 8/19/3
f 6/14/4 1/2/4 5/11/4
f 4/10/5 2/5/5 26/50/6
f 6/15/5 10/24/5 32/65/7
f 23/46/5 9/21/8 25/49/9
f 24/47/10 28/56/11 29/59/12
f 9/21/8 24/48/10 25/49/9
f 9/21/8 11/26/13 7/18/14
f 23/46/5 12/27/15 9/21/8
f 11/25/13 28/57/11 7/16/14
f 23/46/5 14/31/16 12/27/15
f 11/25/13 33/68/17 32/66/7
f 14/31/16 11/26/13 12/27/15
f 23/46/5 16/34/18 14/31/16
f 15/33/19 33/69/17 13/28/20
f 14/31/16 15/32/19 13/30/20
f 18/38/21 15/32/19 16/34/18
f 23/46/5 18/38/21 16/34/18
f 15/33/19 27/53/22 31/64/23
f 18/38/21 19/40/24 17/36/25
f 23/46/5 20/41/26 18/38/21
f 19/39/24 27/54/22 17/35/25
f 23/46/5 22/45/27 20/41/26
f 19/39/24 30/61/28 26/51/6
f 22/45/27 19/40/24 20/41/26
f 23/46/5 25/49/9 22/45/27
f 24/47/10 30/62/28 21/42/29
f 22/45/27 24/48/10 21/44/29
f 2/3/1 4/8/1 3/7/1
f 4/9/2 10/22/2 8/20/2
f 10/23/3 6/13/3 5/12/3 34/70/3
f 6/14/4 2/4/4 1/2/4
f 29/58/12 28/55/11 10/24/5
f 6/15/5 33/67/17 31/63/23
f 2/5/5 6/15/5 31/63/23
f 29/58/12 10/24/5 4/10/5
f 30/60/28 29/58/12 4/10/5
f 2/5/5 31/63/23 27/52/22
f 26/50/6 30/60/28 4/10/5
f 2/5/5 27/52/22 26/50/6
f 10/24/5 28/55/11 32/65/7
f 32/65/7 33/67/17 6/15/5
f 24/47/10 7/17/14 28/56/11
f 9/21/8 7/18/14 24/48/10
f 9/21/8 12/27/15 11/26/13
f 11/25/13 32/66/7 28/57/11
f 11/25/13 13/29/20 33/68/17
f 14/31/16 13/30/20 11/26/13
f 15/33/19 31/64/23 33/69/17
f 14/31/16 16/34/18 15/32/19
f 18/38/21 17/36/25 15/32/19
f 15/33/19 17/37/25 27/53/22
f 18/38/21 20/41/26 19/40/24
f 19/39/24 26/51/6 27/54/22
f 19/39/24 21/43/29 30/61/28
f 22/45/27 21/44/29 19/40/24
f 24/47/10 29/59/12 30/62/28
f 22/45/27 25/49/9 24/48/10
