# Blender 3.3.0
# www.blender.org
o Bazooka_GripFront
v -0.000000 -0.355025 0.469714
v -0.000000 -0.205025 0.469714
v 0.025981 -0.355025 0.484714
v 0.025981 -0.205025 0.484714
v 0.025981 -0.355025 0.514714
v 0.025981 -0.205025 0.514714
v -0.000000 -0.355025 0.529714
v -0.000000 -0.205025 0.529714
v -0.025981 -0.355025 0.514714
v -0.025981 -0.205025 0.514714
v -0.025981 -0.355025 0.484714
v -0.025981 -0.205025 0.484714
vn -0.0000 -0.6100 -0.7924
vn -0.0000 0.6100 -0.7924
vn 0.6862 0.6100 -0.3962
vn 0.6862 -0.6100 -0.3962
vn 0.6862 0.6100 0.3962
vn 0.6862 -0.6100 0.3962
vn -0.0000 0.6100 0.7924
vn -0.0000 -0.6100 0.7924
vn -0.6862 0.6100 0.3962
vn -0.6862 -0.6100 0.3962
vn -0.6862 0.6100 -0.3962
vn -0.6862 -0.6100 -0.3962
vn -0.0000 -1.0000 -0.0000
vt 1.000000 0.500000
vt -0.000000 0.500000
vt 0.750000 0.490000
vt 1.000000 1.000000
vt 0.250000 0.490000
vt -0.000000 1.000000
vt 0.833333 0.500000
vt 0.957846 0.370000
vt 0.833333 1.000000
vt 0.457846 0.370000
vt 0.666667 0.500000
vt 0.957846 0.130000
vt 0.666667 1.000000
vt 0.457846 0.130000
vt 0.500000 0.500000
vt 0.750000 0.010000
vt 0.500000 1.000000
vt 0.250000 0.010000
vt 0.333333 0.500000
vt 0.542154 0.130000
vt 0.042154 0.130000
vt 0.333333 1.000000
vt 0.166667 0.500000
vt 0.542154 0.370000
vt 0.042154 0.370000
vt 0.166667 1.000000
s 1
f 1/1/1 2/4/2 4/9/3 3/7/4
f 3/7/4 4/9/3 6/13/5 5/11/6
f 5/11/6 6/13/5 8/17/7 7/15/8
f 7/15/8 8/17/7 10/22/9 9/19/10
f 4/10/3 2/5/2 12/25/11 10/21/9 8/18/7 6/14/5
f 9/19/10 10/22/9 12/26/11 11/23/12
f 11/23/12 12/26/11 2/6/2 1/2/1
s 0
f 1/3/13 3/8/13 5/12/13 7/16/13 9/20/13 11/24/13
