# Blender 3.3.0
# www.blender.org
o Bazooka_Sight
v 0.017080 0.220682 0.739584
v -0.025612 0.220668 0.739584
v -0.004970 0.254827 0.739584
v 0.017080 0.220682 0.701399
v -0.025612 0.220668 0.701399
v -0.004970 0.254827 0.701399
vn -0.0000 -0.0000 1.0000
vn -0.7164 0.4329 0.5472
vn -0.0124 0.8303 0.5572
vn -0.0124 0.8303 -0.5572
vn -0.7164 0.4329 -0.5472
vn 0.7091 0.4579 -0.5362
vn 0.7091 0.4579 0.5362
vt 0.625000 0.000000
vt 0.875000 0.750000
vt 0.375000 0.250000
vt 0.625000 0.250000
vt 0.875000 0.500000
vt 0.375000 0.750000
vt 0.625000 0.750000
vt 0.375000 0.500000
vt 0.625000 0.500000
s 0
f 1/1/1 3/4/1 2/3/1
s 1
f 2/3/2 3/4/3 6/9/4 5/8/5
f 5/8/5 6/9/4 4/6/6
f 6/9/4 3/5/3 1/2/7 4/7/6
